<?xml version="1.0" encoding="UTF-8" standalone="no"?>
<svg
   xmlns:dc="http://purl.org/dc/elements/1.1/"
   xmlns:cc="http://creativecommons.org/ns#"
   xmlns:rdf="http://www.w3.org/1999/02/22-rdf-syntax-ns#"
   xmlns:svg="http://www.w3.org/2000/svg"
   xmlns="http://www.w3.org/2000/svg"
   xmlns:sodipodi="http://sodipodi.sourceforge.net/DTD/sodipodi-0.dtd"
   xmlns:inkscape="http://www.inkscape.org/namespaces/inkscape"
   id="a953921f-4c4e-4323-8cfc-8a6ae54c37d9"
   data-name="Layer 1"
   width="860"
   height="648.65277"
   viewBox="0 0 860 648.65281"
   version="1.1"
   sodipodi:docname="undraw_Work_chat_re_qes4.svg"
   inkscape:version="0.92.4 (5da689c313, 2019-01-14)">
  <metadata
     id="metadata147">
    <rdf:RDF>
      <cc:Work
         rdf:about="">
        <dc:format>image/svg+xml</dc:format>
        <dc:type
           rdf:resource="http://purl.org/dc/dcmitype/StillImage" />
        <dc:title></dc:title>
      </cc:Work>
    </rdf:RDF>
  </metadata>
  <defs
     id="defs145" />
  <sodipodi:namedview
     pagecolor="#ffffff"
     bordercolor="#666666"
     borderopacity="1"
     objecttolerance="10"
     gridtolerance="10"
     guidetolerance="10"
     inkscape:pageopacity="0"
     inkscape:pageshadow="2"
     inkscape:window-width="1366"
     inkscape:window-height="705"
     id="namedview143"
     showgrid="false"
     inkscape:zoom="0.59852476"
     inkscape:cx="290.60869"
     inkscape:cy="209.86355"
     inkscape:window-x="-8"
     inkscape:window-y="-8"
     inkscape:window-maximized="1"
     inkscape:current-layer="a953921f-4c4e-4323-8cfc-8a6ae54c37d9" />
  <path
     d="m 368.45429,589.50002 a 31.51716,31.51716 0 0 1 -30.43451,-5.36117 c -10.65985,-8.94708 -14.002,-23.68733 -16.72141,-37.336 l -8.04348,-40.37019 16.83986,11.59529 c 12.11023,8.33865 24.49328,16.94444 32.87836,29.02256 8.38508,12.07812 12.04517,28.56585 5.308,41.63494"
     id="path2"
     inkscape:connector-curvature="0"
     style="fill:#e6e6e6" />
  <path
     d="m 367.01482,638.37654 c 1.70442,-12.415 3.457,-24.98956 2.26145,-37.53768 -1.06178,-11.14409 -4.46167,-22.02873 -11.38341,-30.95339 a 51.49146,51.49146 0 0 0 -13.2109,-11.97129 c -1.32109,-0.83387 -2.537,1.25978 -1.22166,2.09 a 48.95178,48.95178 0 0 1 19.363,23.36288 c 4.2156,10.72234 4.89256,22.41059 4.16611,33.8008 -0.43931,6.88809 -1.37037,13.731 -2.30861,20.5652 a 1.25406,1.25406 0 0 0 0.84528,1.48875 1.21763,1.21763 0 0 0 1.48874,-0.84529 z"
     id="path4"
     inkscape:connector-curvature="0"
     style="fill:#f2f2f2" />
  <path
     d="m 350.59817,616.40778 a 23.20063,23.20063 0 0 1 -20.2149,10.43338 c -10.23314,-0.48578 -18.7643,-7.62786 -26.444,-14.40842 l -22.7149,-20.05553 15.0335,-0.71945 c 10.8112,-0.51738 21.90132,-1 32.19861,2.334 10.29729,3.334 19.794,11.35766 21.67693,22.01619"
     id="path6"
     inkscape:connector-curvature="0"
     style="fill:#e6e6e6" />
  <path
     d="m 371.83163,645.5134 c -8.20362,-14.51579 -17.71911,-30.64843 -34.72169,-35.80468 a 38.74557,38.74557 0 0 0 -14.60449,-1.50794 c -1.55056,0.1337 -1.16337,2.52385 0.38438,2.39039 a 35.99579,35.99579 0 0 1 23.30647,6.166 c 6.57154,4.47307 11.68821,10.69183 16.0189,17.28653 2.65269,4.03945 5.02879,8.25028 7.40535,12.45545 0.7595,1.34389 2.97945,0.3738 2.21108,-0.98579 z"
     id="path8"
     inkscape:connector-curvature="0"
     style="fill:#f2f2f2" />
  <path
     d="M 591.71327,354.72368 412.86,502.95804 a 11.02654,11.02654 0 0 1 -15.50846,-1.45176 L 321.9565,410.53782 a 11.02655,11.02655 0 0 1 1.45176,-15.50847 L 502.2615,246.79499 a 11.02656,11.02656 0 0 1 15.5085,1.45176 l 75.395,90.96846 a 11.02655,11.02655 0 0 1 -1.45173,15.50847 z"
     id="path10"
     inkscape:connector-curvature="0"
     style="fill:#cccccc" />
  <path
     d="M 584.546,350.26017 409.80428,495.08684 a 5.68027,5.68027 0 0 1 -7.98921,-0.74787 l -71.98738,-86.8569 a 5.68027,5.68027 0 0 1 0.74788,-7.98921 L 505.31725,254.66619 a 5.68026,5.68026 0 0 1 7.98921,0.74788 l 71.98737,86.85689 a 5.68026,5.68026 0 0 1 -0.74783,7.98921 z"
     id="path12"
     inkscape:connector-curvature="0"
     style="fill:#ffffff" />
  <path
     d="m 592.60135,380.57682 -35.94022,-3.36416 25.72328,-20.24515 13.857,16.71931 a 4.152,4.152 0 0 1 0.48183,4.66117 4.27907,4.27907 0 0 1 -1.05143,1.30238 4.15966,4.15966 0 0 1 -3.07046,0.92645 z"
     id="path14"
     inkscape:connector-curvature="0"
     style="fill:#cccccc" />
  <path
     d="m 520.42753,316.20167 -88.39874,73.26526 a 5.3401615,5.3401615 0 1 1 -6.81537,-8.22314 l 88.39873,-73.26525 a 5.3401608,5.3401608 0 1 1 6.81538,8.22313 z"
     id="path16"
     inkscape:connector-curvature="0"
     style="fill:#cccccc" />
  <path
     d="m 477.16388,322.58131 -59.61775,49.41145 a 5.3401608,5.3401608 0 1 1 -6.81538,-8.22313 l 59.61775,-49.41146 a 5.3401647,5.3401647 0 0 1 6.81538,8.22314 z"
     id="path18"
     inkscape:connector-curvature="0"
     style="fill:#cccccc" />
  <circle
     cx="384.78656"
     cy="406.9469"
     r="16.688"
     id="circle20"
     style="fill:#f86e71" />
  <circle
     cx="517.53241"
     cy="368.1557"
     r="5.3401599"
     id="circle22"
     style="fill:#e6e6e6" />
  <circle
     cx="531.92291"
     cy="356.22879"
     r="5.3401599"
     id="circle24"
     style="fill:#e6e6e6" />
  <circle
     cx="546.31335"
     cy="344.30188"
     r="5.3401599"
     id="circle26"
     style="fill:#e6e6e6" />
  <polygon
     points="479.29,508.925 461.196,508.926 461.198,556.214 473.458,556.213 "
     id="polygon28"
     style="fill:#ffb8b8"
     transform="translate(0,79.999995)" />
  <path
     d="m 458.07113,632.2114 24.14379,-10e-4 h 10e-4 a 15.38605,15.38605 0 0 1 15.38648,15.38623 v 0.5 l -39.53052,10e-4 z"
     id="path30"
     inkscape:connector-curvature="0"
     style="fill:#2f2e41" />
  <polygon
     points="435.29,508.925 417.196,508.926 417.198,556.214 429.458,556.213 "
     id="polygon32"
     style="fill:#ffb8b8"
     transform="translate(0,79.999995)" />
  <path
     d="m 414.07113,632.2114 24.14379,-10e-4 h 10e-4 a 15.38605,15.38605 0 0 1 15.38648,15.38623 v 0.5 l -39.53052,10e-4 z"
     id="path34"
     inkscape:connector-curvature="0"
     style="fill:#2f2e41" />
  <path
     d="m 429.501,621.74512 h -0.002 l -10.42554,-0.003 a 4.48165,4.48165 0 0 1 -4.49487,-4.33789 l -0.32837,-9.1211 c -2.6355,-72.94043 -5.36084,-148.36425 11.51733,-182.26465 l 0.13233,-0.2666 55.88012,-2.02246 11.21851,102.91114 a 44.62081,44.62081 0 0 1 -0.52,13.16406 L 477.648,617.95313 a 4.49876,4.49876 0 0 1 -4.59717,3.6582 l -11.71045,-0.37988 a 4.50188,4.50188 0 0 1 -4.30176,-4.94336 l 9.199,-72.2793 a 24.70205,24.70205 0 0 0 -0.83472,-9.28418 l -11.44043,-39.99414 a 1.50016,1.50016 0 0 0 -2.92822,0.20605 l -17.0767,122.92774 a 4.51837,4.51837 0 0 1 -4.45655,3.88086 z"
     id="path36"
     inkscape:connector-curvature="0"
     style="fill:#2f2e41" />
  <circle
     cx="436.18347"
     cy="296.28067"
     r="24.561029"
     id="circle38"
     style="fill:#ffb8b8" />
  <path
     d="m 479.16043,431.32617 h -50.823 a 4.50035,4.50035 0 0 1 -4.45313,-5.15039 l 2.51075,-17.19629 -14.7439,-40.55371 a 29.8437,29.8437 0 0 1 24.00879,-39.7666 v 0 a 29.73019,29.73019 0 0 1 31.02075,16.81543 l 3.23853,6.89062 13.66578,73.64063 a 4.49963,4.49963 0 0 1 -4.42456,5.32031 z"
     id="path40"
     inkscape:connector-curvature="0"
     style="fill:#f86e71" />
  <path
     d="m 371.87388,474.46221 a 10.74268,10.74268 0 0 0 7.44457,-14.69442 l 39.60234,-89.47207 -22.65457,-5.706 -31.80422,89.74237 a 10.80091,10.80091 0 0 0 7.41184,20.13012 z"
     id="path42"
     inkscape:connector-curvature="0"
     style="fill:#ffb8b8" />
  <path
     d="m 413.55977,386.29724 -22.03344,-10.31357 a 4.81689,4.81689 0 0 1 -1.97427,-7.02164 l 13.39047,-20.22269 a 13.37737,13.37737 0 0 1 24.198,11.41337 l -6.92415,23.16293 a 4.81687,4.81687 0 0 1 -6.65666,2.9816 z"
     id="path44"
     inkscape:connector-curvature="0"
     style="fill:#f86e71" />
  <path
     d="m 537.0751,244.22382 a 10.7427,10.7427 0 0 1 -8.80893,13.91942 l -56.56887,79.83458 -16.50254,-16.53642 60.79449,-73.275 a 10.80091,10.80091 0 0 1 21.08585,-3.94258 z"
     id="path46"
     inkscape:connector-curvature="0"
     style="fill:#ffb8b8" />
  <path
     d="m 484.77876,328.60701 a 4.81164,4.81164 0 0 1 -1.23486,3.81607 l -16.34924,17.8092 a 13.37737,13.37737 0 0 1 -22.19518,-14.93937 l 10.51236,-21.85751 a 4.81688,4.81688 0 0 1 7.04207,-1.90008 l 20.142,13.64334 a 4.81143,4.81143 0 0 1 2.08285,3.42835 z"
     id="path48"
     inkscape:connector-curvature="0"
     style="fill:#f86e71" />
  <path
     d="m 468.45486,286 a 25.25979,25.25979 0 0 0 -0.91846,-6.57593 c -3.957,-14.62243 -18.56543,-23.39868 -33.22509,-21.19629 A 31.69966,31.69966 0 0 0 425.54275,257 v 0 a 31.621,31.621 0 0 0 -31.24609,26.767 L 382.45486,360 h 64 l 10.334,-66.52551 A 31.77725,31.77725 0 0 0 457.05786,286 Z"
     id="path50"
     inkscape:connector-curvature="0"
     style="fill:#2f2e41" />
  <path
     d="M 548,648.6528 H 337 a 1,1 0 1 1 0,-2 h 211 a 1,1 0 0 1 0,2 z"
     id="path52"
     inkscape:connector-curvature="0"
     style="fill:#cccccc" />
  <path
     d="m 578.45584,104.20274 a 10.05579,10.05579 0 0 1 10.98633,10.81926 l 32.70724,14.395 -15.60167,10.07083 -28.66745,-15.21368 a 10.11027,10.11027 0 0 1 0.57555,-20.07138 z"
     id="path54"
     inkscape:connector-curvature="0"
     style="fill:#a0616a" />
  <circle
     cx="710.38739"
     cy="61.68486"
     r="24.561029"
     id="circle56"
     style="fill:#a0616a" />
  <polygon
     points="848.052,338.076 848.05,385.364 835.79,385.363 829.958,338.075 "
     id="polygon58"
     transform="translate(-182.11444,26.535206)"
     style="fill:#a0616a" />
  <path
     d="m 669.06201,423.78295 -39.53052,-0.001 v -0.5 a 15.38605,15.38605 0 0 1 15.38647,-15.38623 h 10e-4 l 24.1438,0.001 z"
     id="path60"
     inkscape:connector-curvature="0"
     style="fill:#2f2e41" />
  <polygon
     points="899.052,338.076 899.05,385.364 886.79,385.363 880.958,338.075 "
     id="polygon62"
     transform="translate(-182.11444,26.535206)"
     style="fill:#a0616a" />
  <path
     d="m 720.06201,423.78295 -39.53052,-0.001 v -0.5 a 15.38605,15.38605 0 0 1 15.38647,-15.38623 h 10e-4 l 24.1438,0.001 z"
     id="path64"
     inkscape:connector-curvature="0"
     style="fill:#2f2e41" />
  <path
     d="m 716.35434,401.8272 a 4.50658,4.50658 0 0 1 -0.54883,-0.0342 l -17.9458,-2.209 a 4.49289,4.49289 0 0 1 -3.94434,-4.23535 l -5.22949,-117.76366 a 1.49993,1.49993 0 0 0 -2.85742,-0.55371 l -13.43433,44.78418 -2.76657,71.93653 a 4.498,4.498 0 0 1 -5.0227,4.29492 l -15.54053,-1.8291 a 4.48512,4.48512 0 0 1 -3.97315,-4.55664 l 1.31934,-67.71387 10.52881,-106.292 0.47046,0.0176 64.02221,2.46777 -0.5769,177.20117 a 4.50146,4.50146 0 0 1 -4.50073,4.48535 z"
     id="path66"
     inkscape:connector-curvature="0"
     style="fill:#2f2e41" />
  <path
     d="m 719.0057,229.85361 c -0.0391,0 -0.0781,0 -0.11743,-0.001 l -64.479,-1.68945 a 4.49979,4.49979 0 0 1 -4.34107,-5.10449 l 12.39014,-91.19141 a 44.13237,44.13237 0 0 1 18.68018,-30.792 38.19591,38.19591 0 0 1 31.10815,-5.546884 c 22.5061,5.703134 36.00757,29.870124 30.09717,53.872074 l -18.968,77.0293 a 4.52648,4.52648 0 0 1 -4.37014,3.42386 z"
     id="path68"
     inkscape:connector-curvature="0"
     style="fill:#3f3d56" />
  <path
     d="m 634.41537,157.43951 a 21.82211,21.82211 0 0 1 -11.96411,-3.55469 L 584.84897,129.2149 a 4.4992,4.4992 0 0 1 -0.79883,-6.85645 l 5.66455,-5.98047 a 4.48379,4.48379 0 0 1 4.93164,-1.08691 l 42.00171,16.72559 38.90869,-27.78614 a 16.15455,16.15455 0 1 1 16.44629,27.67774 l -48.08814,23.35742 a 21.74021,21.74021 0 0 1 -9.49951,2.17383 z"
     id="path70"
     inkscape:connector-curvature="0"
     style="fill:#3f3d56" />
  <path
     d="m 718.89797,85.172926 c 4.19022,0.9894 9.24531,1.74863 12.23986,-1.34484 a 12.5105,12.5105 0 0 0 1.41592,-1.89006 l 3.9152,-5.97741 c 2.9992,-4.57894 6.05107,-9.27733 7.3205,-14.60185 a 23.74125,23.74125 0 0 0 -17.90687,-28.67359 c -5.84568,-1.30882 -11.56585,-3.56078 -17.54216,-3.15 -5.97631,0.41078 -12.98468,0.27592 -18,-3 0.31289,1.46046 2.00253,7.9134 2.00253,7.9134 0,0 -7.5414,6.91867 -9.054,8.64384 a 14.1663,14.1663 0 0 1 19.723,10.67121 c 0.4281,2.62585 0.17666,5.538 1.73668,7.69318 1.48376,2.0498 4.14514,2.768 6.38173,3.95152 a 15.56319,15.56319 0 0 1 6.84685,19.04477 z"
     id="path72"
     inkscape:connector-curvature="0"
     style="fill:#2f2e41" />
  <path
     d="M 689.40864,238.65004 H 485.81917 a 9.66388,9.66388 0 0 1 -9.653,-9.653 V 125.44727 a 9.66388,9.66388 0 0 1 9.653,-9.653 h 203.58947 a 9.66387,9.66387 0 0 1 9.65295,9.653 v 103.54982 a 9.66387,9.66387 0 0 1 -9.65295,9.65295 z"
     id="path74"
     inkscape:connector-curvature="0"
     style="fill:#cccccc" />
  <path
     d="M 687.06856,231.62971 H 488.15928 a 4.97829,4.97829 0 0 1 -4.97273,-4.97273 v -98.8696 a 4.97829,4.97829 0 0 1 4.97273,-4.97273 h 198.90928 a 4.9783,4.9783 0 0 1 4.97274,4.97273 v 98.8696 a 4.9783,4.9783 0 0 1 -4.97274,4.97273 z"
     id="path76"
     inkscape:connector-curvature="0"
     style="fill:#ffffff" />
  <path
     d="m 675.54917,256.59199 -22.37044,-22.37015 28.68,0.725 v 19.03167 a 3.63886,3.63886 0 0 1 -2.28169,3.41475 3.75017,3.75017 0 0 1 -1.43786,0.2908 3.64556,3.64556 0 0 1 -2.59001,-1.09207 z"
     id="path78"
     inkscape:connector-curvature="0"
     style="fill:#cccccc" />
  <path
     d="M 662.85013,172.78845 H 562.22544 a 4.68022,4.68022 0 1 1 0,-9.36044 h 100.62469 a 4.68022,4.68022 0 0 1 0,9.36044 z"
     id="path80"
     inkscape:connector-curvature="0"
     style="fill:#cccccc" />
  <path
     d="m 630.08856,152.89752 h -67.86312 a 4.68022,4.68022 0 1 1 0,-9.36043 h 67.86312 a 4.680215,4.680215 0 1 1 0,9.36043 z"
     id="path82"
     inkscape:connector-curvature="0"
     style="fill:#cccccc" />
  <circle
     cx="520.57123"
     cy="158.16277"
     r="14.62568"
     id="circle84"
     style="fill:#f86e71" />
  <circle
     cx="631.84052"
     cy="206.22704"
     r="4.6802201"
     id="circle86"
     style="fill:#e6e6e6" />
  <circle
     cx="648.22131"
     cy="206.22704"
     r="4.6802201"
     id="circle88"
     style="fill:#e6e6e6" />
  <circle
     cx="664.60205"
     cy="206.22704"
     r="4.6802201"
     id="circle90"
     style="fill:#e6e6e6" />
  <path
     d="m 686.25616,226.33561 a 10.05578,10.05578 0 0 1 12.8385,-8.53983 l 20.78344,-29.06936 6.665,17.33237 -20.75813,24.94752 a 10.11027,10.11027 0 0 1 -19.52885,-4.6707 z"
     id="path92"
     inkscape:connector-curvature="0"
     style="fill:#a0616a" />
  <path
     d="m 710.06345,224.76711 a 4.53555,4.53555 0 0 1 -0.98107,-0.0247 4.48884,4.48884 0 0 1 -3.20506,-2.06 l -4.39223,-6.96833 a 4.47981,4.47981 0 0 1 0.16818,-5.04824 l 26.602,-36.55347 -17.29062,-44.57587 a 16.06991,16.06991 0 0 1 8.81348,-20.73946 v 0 a 16.154,16.154 0 0 1 22.07333,11.65569 l 10.72775,52.37339 a 21.8839,21.8839 0 0 1 -6.65051,20.45445 l -33.21,30.32536 a 4.4868,4.4868 0 0 1 -2.65525,1.16114 z"
     id="path94"
     inkscape:connector-curvature="0"
     style="fill:#3f3d56" />
  <path
     d="m 765.88556,426.18801 h -211 a 1,1 0 0 1 0,-2 h 211 a 1,1 0 0 1 0,2 z"
     id="path96"
     inkscape:connector-curvature="0"
     style="fill:#cccccc" />
  <path
     d="M 330.13165,254.1671 H 126.54218 a 9.66388,9.66388 0 0 1 -9.653,-9.653 V 140.96432 a 9.66387,9.66387 0 0 1 9.653,-9.653 h 203.58947 a 9.66387,9.66387 0 0 1 9.65295,9.653 v 103.54983 a 9.66388,9.66388 0 0 1 -9.65295,9.65295 z"
     id="path98"
     inkscape:connector-curvature="0"
     style="fill:#cccccc" />
  <path
     d="M 327.79154,247.14677 H 128.88229 a 4.97829,4.97829 0 0 1 -4.97273,-4.97273 v -98.86961 a 4.9783,4.9783 0 0 1 4.97273,-4.97274 h 198.90925 a 4.9783,4.9783 0 0 1 4.97273,4.97274 v 98.86961 a 4.97829,4.97829 0 0 1 -4.97273,4.97273 z"
     id="path100"
     inkscape:connector-curvature="0"
     style="fill:#ffffff" />
  <path
     d="m 316.27218,272.10905 -22.37044,-22.37015 28.68,0.725 v 19.03167 a 3.63886,3.63886 0 0 1 -2.28169,3.41475 3.7502,3.7502 0 0 1 -1.43786,0.2908 3.64558,3.64558 0 0 1 -2.59001,-1.09207 z"
     id="path102"
     inkscape:connector-curvature="0"
     style="fill:#cccccc" />
  <path
     d="M 303.57313,188.30551 H 202.94845 a 4.680225,4.680225 0 1 1 0,-9.36045 h 100.62468 a 4.680225,4.680225 0 0 1 0,9.36045 z"
     id="path104"
     inkscape:connector-curvature="0"
     style="fill:#cccccc" />
  <path
     d="m 270.81161,168.41457 h -67.86316 a 4.68022,4.68022 0 1 1 0,-9.36044 h 67.86316 a 4.68022,4.68022 0 1 1 0,9.36044 z"
     id="path106"
     inkscape:connector-curvature="0"
     style="fill:#cccccc" />
  <circle
     cx="161.29424"
     cy="173.67981"
     r="14.62568"
     id="circle108"
     style="fill:#f86e71" />
  <circle
     cx="272.56354"
     cy="221.74409"
     r="4.6802201"
     id="circle110"
     style="fill:#e6e6e6" />
  <circle
     cx="288.94431"
     cy="221.74409"
     r="4.6802201"
     id="circle112"
     style="fill:#e6e6e6" />
  <circle
     cx="305.32507"
     cy="221.74409"
     r="4.6802201"
     id="circle114"
     style="fill:#e6e6e6" />
  <path
     d="m 321.68848,121.36224 a 10.05575,10.05575 0 0 0 -5.31,14.47619 l -23.4203,26.99016 18.40886,2.43876 19.418,-26.0042 a 10.11027,10.11027 0 0 0 -9.09656,-17.90091 z"
     id="path116"
     inkscape:connector-curvature="0"
     style="fill:#ffb8b8" />
  <path
     d="m 165.31217,132.16779 a 10.0558,10.0558 0 0 1 -7.75445,13.32757 l -5.82806,35.2564 -13.62751,-12.61452 7.62367,-31.54613 a 10.11027,10.11027 0 0 1 19.58635,-4.42336 z"
     id="path118"
     inkscape:connector-curvature="0"
     style="fill:#ffb8b8" />
  <polygon
     points="128.397,338.076 128.399,385.364 140.659,385.363 146.491,338.075 "
     id="polygon120"
     transform="translate(73.514085,103.39084)"
     style="fill:#ffb8b8" />
  <path
     d="m 198.78572,484.75187 24.1438,-10e-4 h 0.001 a 15.38605,15.38605 0 0 1 15.38647,15.38623 v 0.5 l -39.53052,0.001 z"
     id="path122"
     inkscape:connector-curvature="0"
     style="fill:#2f2e41" />
  <polygon
     points="65.397,338.076 65.399,385.364 77.659,385.363 83.491,338.075 "
     id="polygon124"
     transform="translate(73.514085,103.39084)"
     style="fill:#ffb8b8" />
  <path
     d="m 135.78572,484.75187 24.1438,-10e-4 h 0.001 a 15.38605,15.38605 0 0 1 15.38647,15.38623 v 0.5 l -39.53052,0.001 z"
     id="path126"
     inkscape:connector-curvature="0"
     style="fill:#2f2e41" />
  <circle
     cx="199.35378"
     cy="141.33794"
     r="24.561029"
     id="circle128"
     style="fill:#ffb8b8" />
  <path
     d="m 196.40965,473.04541 -2.03076,-129.40625 a 1.49985,1.49985 0 0 0 -2.95923,-0.32422 l -33.291,126.57617 a 4.55506,4.55506 0 0 1 -4.571,3.459 l -18.29,-0.78223 a 4.50093,4.50093 0 0 1 -4.272,-5.06055 l 28.24878,-162.6582 0.0579,-0.459 78.68213,3.72265 0.51318,0.0234 -16.87238,165.1797 a 4.51892,4.51892 0 0 1 -4.48731,4.166 H 200.9092 a 4.51825,4.51825 0 0 1 -4.49951,-4.43651 z"
     id="path130"
     inkscape:connector-curvature="0"
     style="fill:#2f2e41" />
  <path
     d="m 258.55442,319.07471 -114.17773,-9.37012 a 4.49926,4.49926 0 0 1 -3.86353,-6.01465 l 17.98072,-49.71191 1.03467,-59.00293 a 16.18147,16.18147 0 0 1 16.667,-15.89064 l 7.593,-6.88281 h 27.81958 l 2.42236,3.17578 19.35718,2.97461 a 16.27225,16.27225 0 0 1 13.58007,13.83301 l 16.41434,121.80469 a 4.5006,4.5006 0 0 1 -4.45386,5.10059 c -0.12404,0 -0.2488,-0.005 -0.3738,-0.0156 z"
     id="path132"
     inkscape:connector-curvature="0"
     style="fill:#2f2e41" />
  <path
     d="m 236.30833,184.07178 48.68359,-14.26369 22.03272,-29.00785 a 4.49872,4.49872 0 0 1 5.35229,-1.416 l 13.75635,5.87988 a 4.49956,4.49956 0 0 1 2.11914,6.40332 l -16.46557,28.25586 a 25.19721,25.19721 0 0 1 -11.65377,10.42289 l -57.26123,25.3125 z"
     id="path134"
     inkscape:connector-curvature="0"
     style="fill:#2f2e41" />
  <path
     d="m 142.90696,205.40869 a 20.86486,20.86486 0 0 1 -8.60376,-18.5752 l 2.13648,-28.30762 a 4.51169,4.51169 0 0 1 4.48755,-4.16114 h 0.0398 l 16.13184,0.14356 a 4.5009,4.5009 0 0 1 4.376,5.36523 l -2.99316,15.27149 21.36011,9.0254 -17.98706,34.99316 z"
     id="path136"
     inkscape:connector-curvature="0"
     style="fill:#2f2e41" />
  <path
     d="m 213.6419,111.88694 c 0,0 -25.685,-13.830224 -39.685,2.49239 -14,16.32261 5.3339,41.8476 5.3339,41.8476 l 27.548,3.4744 c 0,0 1,-18.72648 7.559,-18.36293 6.559,0.36355 26.92914,-23.26647 -0.7559,-29.45146 z"
     id="path138"
     inkscape:connector-curvature="0"
     style="fill:#2f2e41" />
  <path
     d="M 285.51408,502.04365 H 74.514085 a 1,1 0 0 1 0,-2 H 285.51408 a 1,1 0 0 1 0,2 z"
     id="path140"
     inkscape:connector-curvature="0"
     style="fill:#cccccc" />
</svg>
